<svg xmlns="http://www.w3.org/2000/svg" width="17" height="13" viewBox="0 0 17 13">
  <metadata><?xpacket begin="﻿" id="W5M0MpCehiHzreSzNTczkc9d"?>
<x:xmpmeta xmlns:x="adobe:ns:meta/" x:xmptk="Adobe XMP Core 5.6-c142 79.160924, 2017/07/13-01:06:39        ">
   <rdf:RDF xmlns:rdf="http://www.w3.org/1999/02/22-rdf-syntax-ns#">
      <rdf:Description rdf:about=""/>
   </rdf:RDF>
</x:xmpmeta>
                                                                                                    
                                                                                                    
                                                                                                    
                                                                                                    
                                                                                                    
                                                                                                    
                                                                                                    
                                                                                                    
                                                                                                    
                                                                                                    
                                                                                                    
                                                                                                    
                                                                                                    
                                                                                                    
                                                                                                    
                                                                                                    
                                                                                                    
                                                                                                    
                                                                                                    
                                                                                                    
                           
<?xpacket end="w"?></metadata>
<defs>
    <style>
      .cls-1 {
        fill: #f7c42a;
        fill-rule: evenodd;
      }
    </style>
  </defs>
  <path id="Arrow" class="cls-1" d="M77,1938.49a0.923,0.923,0,0,0-.951-0.89h-15.1a0.892,0.892,0,1,0,0,1.78h15.1A0.923,0.923,0,0,0,77,1938.49Zm-9.115,5.61a0.853,0.853,0,0,0-.279-0.63l-5.313-4.98,5.313-4.98a0.851,0.851,0,0,0,0-1.26,0.994,0.994,0,0,0-1.346,0l-5.984,5.61a0.853,0.853,0,0,0,0,1.26l5.985,5.61a0.993,0.993,0,0,0,1.345,0A0.853,0.853,0,0,0,67.882,1944.1Z" transform="translate(-60 -1932)"/>
</svg>
