<svg xmlns="http://www.w3.org/2000/svg" width="1400" height="18" viewBox="0 0 1400 18">
  <metadata><?xpacket begin="﻿" id="W5M0MpCehiHzreSzNTczkc9d"?>
<x:xmpmeta xmlns:x="adobe:ns:meta/" x:xmptk="Adobe XMP Core 5.6-c142 79.160924, 2017/07/13-01:06:39        ">
   <rdf:RDF xmlns:rdf="http://www.w3.org/1999/02/22-rdf-syntax-ns#">
      <rdf:Description rdf:about=""/>
   </rdf:RDF>
</x:xmpmeta>
                                                                                                    
                                                                                                    
                                                                                                    
                                                                                                    
                                                                                                    
                                                                                                    
                                                                                                    
                                                                                                    
                                                                                                    
                                                                                                    
                                                                                                    
                                                                                                    
                                                                                                    
                                                                                                    
                                                                                                    
                                                                                                    
                                                                                                    
                                                                                                    
                                                                                                    
                                                                                                    
                           
<?xpacket end="w"?></metadata>
<defs>
    <style>
      .cls-border {
        fill: #dee1ec;
        fill-rule: evenodd;
      }
    </style>
  </defs>
  <path id="Centimeters" class="cls-border" d="M1,164.992H0v-17.98H1v17.98Zm4.425,0h-1V153.005h1v11.987Zm4.425,0h-1V153.005h1v11.987Zm4.425,0h-1V153.005h1v11.987Zm4.425,0h-1v-17.98h1v17.98Zm0,0h-1v-17.98h1v17.98Zm4.425,0h-1V153.005h1v11.987Zm4.425,0h-1V153.005h1v11.987Zm4.425,0h-1V153.005h1v11.987Zm4.425,0h-1v-17.98h1v17.98Zm4.425,0h-1V153.005h1v11.987Zm4.425,0h-1V153.005h1v11.987Zm4.425,0h-1V153.005h1v11.987Zm4.425,0h-1v-17.98h1v17.98Zm4.425,0h-1V153.005h1v11.987Zm4.425,0h-1V153.005h1v11.987Zm4.425,0h-1V153.005h1v11.987Zm4.425,0h-1v-17.98h1v17.98Zm4.425,0h-1V153.005h1v11.987Zm4.425,0h-1V153.005h1v11.987Zm4.425,0h-1V153.005h1v11.987Zm4.425,0h-1v-17.98h1v17.98Zm4.425,0h-1V153.005h1v11.987Zm4.425,0h-1V153.005h1v11.987Zm4.425,0h-1V153.005h1v11.987Zm4.426,0h-1v-17.98h1v17.98Zm4.424,0h-1V153.005h1v11.987Zm4.425,0h-1V153.005h1v11.987Zm4.425,0h-1V153.005h1v11.987Zm4.425,0h-1v-17.98h1v17.98Zm4.425,0h-1V153.005h1v11.987Zm4.425,0h-1V153.005h1v11.987Zm4.425,0h-1V153.005h1v11.987Zm4.425,0h-1v-17.98h1v17.98Zm4.425,0h-1V153.005h1v11.987Zm4.425,0h-1V153.005h1v11.987Zm4.425,0h-1V153.005h1v11.987Zm4.425,0h-1v-17.98h1v17.98Zm4.425,0h-1V153.005h1v11.987Zm4.425,0h-1V153.005h1v11.987Zm4.425,0h-1V153.005h1v11.987Zm4.425,0h-1v-17.98h1v17.98Zm4.425,0h-1V153.005h1v11.987Zm4.425,0h-1V153.005h1v11.987Zm4.426,0h-1V153.005h1v11.987Zm4.424,0h-1v-17.98h1v17.98Zm4.425,0h-1V153.005h1v11.987Zm4.425,0h-1V153.005h1v11.987Zm4.425,0h-1V153.005h1v11.987Zm4.425,0h-1v-17.98h1v17.98Zm4.425,0h-1V153.005h1v11.987Zm4.425,0h-1V153.005h1v11.987Zm4.425,0h-1V153.005h1v11.987Zm4.426,0h-1v-17.98h1v17.98Zm4.424,0h-1V153.005h1v11.987Zm4.425,0h-1V153.005h1v11.987Zm4.425,0h-1V153.005h1v11.987Zm4.425,0h-1v-17.98h1v17.98Zm4.425,0h-1V153.005h1v11.987Zm4.425,0h-1V153.005h1v11.987Zm4.425,0h-1V153.005h1v11.987Zm4.425,0h-1v-17.98h1v17.98Zm4.425,0h-1V153.005h1v11.987Zm4.426,0h-1V153.005h1v11.987Zm4.425,0h-1V153.005h1v11.987Zm4.425,0h-1v-17.98h1v17.98Zm4.425,0h-1V153.005h1v11.987Zm4.424,0h-1V153.005h1v11.987Zm4.425,0h-1V153.005h1v11.987Zm4.425,0h-1v-17.98h1v17.98Zm4.425,0h-1V153.005h1v11.987Zm4.425,0h-1V153.005h1v11.987Zm4.425,0h-1V153.005h1v11.987Zm4.425,0h-1v-17.98h1v17.98Zm4.425,0h-1V153.005h1v11.987Zm4.426,0h-1V153.005h1v11.987Zm4.425,0h-1V153.005h1v11.987Zm4.425,0h-1v-17.98h1v17.98Zm4.425,0h-1V153.005h1v11.987Zm4.424,0h-1V153.005h1v11.987Zm4.425,0h-1V153.005h1v11.987Zm4.425,0h-1v-17.98h1v17.98Zm0,0h-1v-17.98h1v17.98Zm4.425,0h-1V153.005h1v11.987Zm4.425,0h-1V153.005h1v11.987Zm4.425,0h-1V153.005h1v11.987Zm4.425,0h-1v-17.98h1v17.98Zm0,0h-1v-17.98h1v17.98Zm4.425,0h-1V153.005h1v11.987Zm4.425,0h-1V153.005h1v11.987Zm4.425,0h-1V153.005h1v11.987Zm4.425,0h-1v-17.98h1v17.98Zm4.425,0h-1V153.005h1v11.987Zm4.425,0h-1V153.005h1v11.987Zm4.426,0h-1V153.005h1v11.987Zm4.424,0h-1v-17.98h1v17.98Zm4.425,0h-1V153.005h1v11.987Zm4.425,0h-1V153.005h1v11.987Zm4.425,0h-1V153.005h1v11.987Zm4.425,0h-1v-17.98h1v17.98Zm4.425,0h-1V153.005h1v11.987Zm4.425,0h-1V153.005h1v11.987Zm4.425,0h-1V153.005h1v11.987Zm4.425,0h-1v-17.98h1v17.98Zm4.425,0h-1V153.005h1v11.987Zm4.425,0h-1V153.005h1v11.987Zm4.425,0h-1V153.005h1v11.987Zm4.426,0h-1v-17.98h1v17.98Zm4.424,0h-1V153.005h1v11.987Zm4.425,0h-1V153.005h1v11.987Zm4.425,0h-1V153.005h1v11.987Zm4.425,0h-1v-17.98h1v17.98Zm4.425,0h-1V153.005h1v11.987Zm4.425,0h-1V153.005h1v11.987Zm4.425,0h-1V153.005h1v11.987Zm4.425,0h-1v-17.98h1v17.98Zm4.425,0h-1V153.005h1v11.987Zm4.425,0h-1V153.005h1v11.987Zm4.425,0h-1V153.005h1v11.987Zm4.425,0h-1v-17.98h1v17.98Zm4.425,0h-1V153.005h1v11.987Zm4.425,0h-1V153.005h1v11.987Zm4.425,0h-1V153.005h1v11.987Zm4.425,0h-1v-17.98h1v17.98Zm4.425,0h-1V153.005h1v11.987Zm4.425,0h-1V153.005h1v11.987Zm4.425,0h-1V153.005h1v11.987Zm4.425,0h-1v-17.98h1v17.98Zm4.425,0h-1V153.005h1v11.987Zm4.425,0h-1V153.005h1v11.987Zm4.425,0h-1V153.005h1v11.987Zm4.425,0h-1v-17.98h1v17.98Zm4.426,0h-1V153.005h1v11.987Zm4.424,0h-1V153.005h1v11.987Zm4.425,0h-1V153.005h1v11.987Zm4.426,0h-1v-17.98h1v17.98Zm4.424,0h-1V153.005h1v11.987Zm4.425,0h-1V153.005h1v11.987Zm4.425,0h-1V153.005h1v11.987Zm4.425,0h-1v-17.98h1v17.98Zm4.425,0h-1V153.005h1v11.987Zm4.425,0h-1V153.005h1v11.987Zm4.425,0h-1V153.005h1v11.987Zm4.425,0h-1v-17.98h1v17.98Zm4.425,0h-1V153.005h1v11.987Zm4.426,0h-1V153.005h1v11.987Zm4.425,0h-1V153.005h1v11.987Zm4.425,0h-1v-17.98h1v17.98Zm4.425,0h-1V153.005h1v11.987Zm4.424,0h-1V153.005h1v11.987Zm4.425,0h-1V153.005h1v11.987Zm4.425,0h-1v-17.98h1v17.98Zm4.425,0h-1V153.005h1v11.987Zm4.425,0h-1V153.005h1v11.987Zm4.425,0h-1V153.005h1v11.987Zm4.425,0h-1v-17.98h1v17.98Zm4.425,0h-1V153.005h1v11.987Zm4.425,0h-1V153.005h1v11.987Zm4.426,0h-1V153.005h1v11.987Zm4.425,0h-1v-17.98h1v17.98Zm4.425,0h-1V153.005h1v11.987Zm4.424,0h-1V153.005h1v11.987Zm4.425,0h-1V153.005h1v11.987Zm4.425,0h-1v-17.98h1v17.98Zm0,0h-1v-17.98h1v17.98Zm4.425,0h-1V153.005h1v11.987Zm4.425,0h-1V153.005h1v11.987Zm4.425,0h-1V153.005h1v11.987Zm4.425,0h-1v-17.98h1v17.98Zm0,0h-1v-17.98h1v17.98Zm4.425,0h-1V153.005h1v11.987Zm4.425,0h-1V153.005h1v11.987Zm4.425,0h-1V153.005h1v11.987Zm4.425,0h-1v-17.98h1v17.98Zm4.425,0h-1V153.005h1v11.987Zm4.425,0h-1V153.005h1v11.987Zm4.426,0h-1V153.005h1v11.987Zm4.424,0h-1v-17.98h1v17.98Zm4.425,0h-1V153.005h1v11.987Zm4.425,0h-1V153.005h1v11.987Zm4.425,0h-1V153.005h1v11.987Zm4.425,0h-1v-17.98h1v17.98Zm4.425,0h-1V153.005h1v11.987Zm4.425,0h-1V153.005h1v11.987Zm4.425,0h-1V153.005h1v11.987Zm4.425,0h-1v-17.98h1v17.98Zm4.425,0h-1V153.005h1v11.987Zm4.425,0h-1V153.005h1v11.987Zm4.425,0h-1V153.005h1v11.987Zm4.426,0h-1v-17.98h1v17.98Zm4.424,0h-1V153.005h1v11.987Zm4.425,0h-1V153.005h1v11.987Zm4.425,0h-1V153.005h1v11.987Zm4.425,0h-1v-17.98h1v17.98Zm4.425,0h-1V153.005h1v11.987Zm4.425,0h-1V153.005h1v11.987Zm4.425,0h-1V153.005h1v11.987Zm4.425,0h-1v-17.98h1v17.98Zm4.425,0h-1V153.005h1v11.987Zm4.425,0h-1V153.005h1v11.987Zm4.425,0h-1V153.005h1v11.987Zm4.425,0h-1v-17.98h1v17.98Zm4.425,0h-1V153.005h1v11.987Zm4.425,0h-1V153.005h1v11.987Zm4.425,0h-1V153.005h1v11.987Zm4.425,0h-1v-17.98h1v17.98Zm4.425,0h-1V153.005h1v11.987Zm4.426,0h-1V153.005h1v11.987Zm4.425,0h-1V153.005h1v11.987Zm4.424,0h-1v-17.98h1v17.98Zm4.425,0h-1V153.005h1v11.987Zm4.425,0h-1V153.005h1v11.987Zm4.425,0h-1V153.005h1v11.987Zm4.425,0h-1v-17.98h1v17.98Zm4.426,0h-1V153.005h1v11.987Zm4.424,0h-1V153.005h1v11.987Zm4.425,0h-1V153.005h1v11.987Zm4.426,0h-1v-17.98h1v17.98Zm4.424,0h-1V153.005h1v11.987Zm4.425,0h-1V153.005h1v11.987Zm4.425,0h-1V153.005h1v11.987Zm4.425,0h-1v-17.98h1v17.98Zm4.425,0h-1V153.005h1v11.987Zm4.425,0h-1V153.005h1v11.987Zm4.425,0h-1V153.005h1v11.987Zm4.425,0h-1v-17.98h1v17.98Zm4.425,0h-1V153.005h1v11.987Zm4.426,0h-1V153.005h1v11.987Zm4.425,0h-1V153.005h1v11.987Zm4.425,0h-1v-17.98h1v17.98Zm4.425,0h-1V153.005h1v11.987Zm4.424,0h-1V153.005h1v11.987Zm4.42,0h-1V153.005h1v11.987Zm4.43,0h-1v-17.98h1v17.98Zm4.43,0h-1V153.005h1v11.987Zm4.42,0h-1V153.005h1v11.987Zm4.43,0h-1V153.005h1v11.987Zm4.42,0h-1v-17.98h1v17.98Zm4.43,0h-1V153.005h1v11.987Zm4.42,0h-1V153.005h1v11.987Zm4.43,0h-1V153.005h1v11.987Zm4.42,0h-1v-17.98h1v17.98Zm4.43,0h-1V153.005h1v11.987Zm4.42,0h-1V153.005h1v11.987Zm4.42,0h-1V153.005h1v11.987Zm4.43,0h-1v-17.98h1v17.98Zm0,0h-1v-17.98h1v17.98Zm4.43,0h-1V153.005h1v11.987Zm4.42,0h-1V153.005h1v11.987Zm4.43,0h-1V153.005h1v11.987Zm4.42,0h-1v-17.98h1v17.98Zm0,0h-1v-17.98h1v17.98Zm4.43,0h-1V153.005h1v11.987Zm4.42,0h-1V153.005h1v11.987Zm4.43,0h-1V153.005h1v11.987Zm4.42,0h-1v-17.98h1v17.98Zm4.43,0h-1V153.005h1v11.987Zm4.42,0h-1V153.005h1v11.987Zm4.43,0h-1V153.005h1v11.987Zm4.42,0h-1v-17.98h1v17.98Zm4.43,0h-1V153.005h1v11.987Zm4.42,0h-1V153.005h1v11.987Zm4.43,0h-1V153.005h1v11.987Zm4.42,0h-1v-17.98h1v17.98Zm4.43,0h-1V153.005h1v11.987Zm4.42,0h-1V153.005h1v11.987Zm4.43,0h-1V153.005h1v11.987Zm4.42,0h-1v-17.98h1v17.98Zm4.43,0h-1V153.005h1v11.987Zm4.42,0h-1V153.005h1v11.987Zm4.43,0h-1V153.005h1v11.987Zm4.42,0h-1v-17.98h1v17.98Zm4.43,0h-1V153.005h1v11.987Zm4.42,0h-1V153.005h1v11.987Zm4.43,0h-1V153.005h1v11.987Zm4.42,0h-1v-17.98h1v17.98Zm4.43,0h-1V153.005h1v11.987Zm4.42,0h-1V153.005h1v11.987Zm4.43,0h-1.01V153.005h1.01v11.987Zm4.42,0h-1v-17.98h1v17.98Zm4.43,0h-1V153.005h1v11.987Zm4.42,0h-1V153.005h1v11.987Zm4.43,0h-1V153.005h1v11.987Zm4.42,0h-1v-17.98h1v17.98Zm4.43,0h-1.01V153.005h1.01v11.987Zm4.42,0h-1V153.005h1v11.987Zm4.43,0h-1V153.005h1v11.987Zm4.42,0h-1v-17.98h1v17.98Zm4.43,0h-1V153.005h1v11.987Zm4.42,0h-1V153.005h1v11.987Zm4.43,0h-1V153.005h1v11.987Zm4.42,0h-1v-17.98h1v17.98Zm4.43,0h-1V153.005h1v11.987Zm4.42,0h-1V153.005h1v11.987Zm4.43,0h-1V153.005h1v11.987Zm4.42,0h-1v-17.98h1v17.98Zm4.43,0h-1V153.005h1v11.987Zm4.42,0h-1V153.005h1v11.987Zm4.43,0h-1V153.005h1v11.987Zm4.42,0h-1v-17.98h1v17.98Zm4.42,0h-1V153.005h1v11.987Zm4.43,0h-1V153.005h1v11.987Zm4.43,0h-1.01V153.005h1.01v11.987Zm4.42,0h-1v-17.98h1v17.98Zm4.43,0h-1V153.005h1v11.987Zm4.42,0h-1V153.005h1v11.987Zm4.43,0h-1V153.005h1v11.987Zm4.42,0h-1v-17.98h1v17.98Zm4.43,0h-1V153.005h1v11.987Zm4.42,0h-1V153.005h1v11.987Zm4.43,0h-1V153.005h1v11.987Zm4.42,0h-1v-17.98h1v17.98Zm4.43,0h-1V153.005h1v11.987Zm4.42,0h-1V153.005h1v11.987Zm4.42,0h-1V153.005h1v11.987Zm4.43,0h-1v-17.98h1v17.98Zm4.43,0h-1V153.005h1v11.987Zm4.42,0h-1V153.005h1v11.987Zm4.43,0h-1V153.005h1v11.987Zm4.42,0h-1v-17.98h1v17.98Zm4.43,0h-1V153.005h1v11.987Zm4.42,0h-1V153.005h1v11.987Zm4.43,0h-1V153.005h1v11.987Zm4.42,0h-1v-17.98h1v17.98Zm4.43,0h-1V153.005h1v11.987Zm4.42,0h-1V153.005h1v11.987Zm4.42,0h-1V153.005h1v11.987Zm4.43,0h-1v-17.98h1v17.98Z" transform="translate(0 -147)"/>
</svg>
