<svg xmlns="http://www.w3.org/2000/svg" width="8" height="8.03" viewBox="0 0 8 8.03">
  <metadata><?xpacket begin="﻿" id="W5M0MpCehiHzreSzNTczkc9d"?>
<x:xmpmeta xmlns:x="adobe:ns:meta/" x:xmptk="Adobe XMP Core 5.6-c142 79.160924, 2017/07/13-01:06:39        ">
   <rdf:RDF xmlns:rdf="http://www.w3.org/1999/02/22-rdf-syntax-ns#">
      <rdf:Description rdf:about=""/>
   </rdf:RDF>
</x:xmpmeta>
                                                                                                    
                                                                                                    
                                                                                                    
                                                                                                    
                                                                                                    
                                                                                                    
                                                                                                    
                                                                                                    
                                                                                                    
                                                                                                    
                                                                                                    
                                                                                                    
                                                                                                    
                                                                                                    
                                                                                                    
                                                                                                    
                                                                                                    
                                                                                                    
                                                                                                    
                                                                                                    
                           
<?xpacket end="w"?></metadata>
<defs>
    <style>
      .cls-1 {
        fill: #9cb1bc;
        fill-rule: evenodd;
      }
    </style>
  </defs>
  <path id="Arrow" class="cls-1" d="M863.946,5766.47l3.59,3.44a0.3,0.3,0,0,0,.4.01,0.228,0.228,0,0,0,.015-0.35h0l-3.591-3.44a0.208,0.208,0,0,1,0-.28l3.591-3.43a0.239,0.239,0,0,0-.015-0.36,0.31,0.31,0,0,0-.4.02l-3.59,3.44A0.66,0.66,0,0,0,863.946,5766.47Zm-3.721-.96,3.591-3.43a0.31,0.31,0,0,1,.395-0.02,0.239,0.239,0,0,1,.014.36l-3.59,3.44a0.206,0.206,0,0,0,0,.28l3.59,3.44a0.229,0.229,0,0,1-.014.35,0.309,0.309,0,0,1-.395-0.01l-3.591-3.44a0.667,0.667,0,0,1,0-.96v-0.01Z" transform="translate(-860.031 -5762)"/>
</svg>
