<svg xmlns="http://www.w3.org/2000/svg" width="46" height="46" viewBox="0 0 46 46">
  <metadata><?xpacket begin="﻿" id="W5M0MpCehiHzreSzNTczkc9d"?>
<x:xmpmeta xmlns:x="adobe:ns:meta/" x:xmptk="Adobe XMP Core 5.6-c142 79.160924, 2017/07/13-01:06:39        ">
   <rdf:RDF xmlns:rdf="http://www.w3.org/1999/02/22-rdf-syntax-ns#">
      <rdf:Description rdf:about=""/>
   </rdf:RDF>
</x:xmpmeta>
                                                                                                    
                                                                                                    
                                                                                                    
                                                                                                    
                                                                                                    
                                                                                                    
                                                                                                    
                                                                                                    
                                                                                                    
                                                                                                    
                                                                                                    
                                                                                                    
                                                                                                    
                                                                                                    
                                                                                                    
                                                                                                    
                                                                                                    
                                                                                                    
                                                                                                    
                                                                                                    
                           
<?xpacket end="w"?></metadata>
<defs>
    <style>
      .cls-icon6 {
        fill: #f1c40f;
        fill-rule: evenodd;
      }
    </style>
  </defs>
  <path class="cls-icon6" d="M437,1636.56l0.027-.03-15.746-15.07a5.3,5.3,0,0,0-7.4.09l-1.428,1.43,4.171,3.99-6.078,6.08-1.176-1.18,0.742-.74-8.469-8.47-6.984,6.98,8.468,8.47,0.742-.74,1.177,1.18-5.936,5.93,4.452,4.45-10.424,10.43a3.849,3.849,0,0,0-1.14,2.75,3.9,3.9,0,0,0,3.89,3.89,3.844,3.844,0,0,0,2.75-1.14l10.424-10.42,7.42,7.42,20.53-20.54a3.351,3.351,0,0,0-.012-4.76h0Zm-22.07-13.96a3.812,3.812,0,0,1,5.326-.07l13.7,13.12a3.3,3.3,0,0,0-1.707.92l-1.686,1.68-15.992-15.29Zm-13.287,2.16,4.145,4.14-4.887,4.89-4.144-4.15Zm0.307,10.08,4.887-4.89,1.176,1.18-4.886,4.89Zm6.371-1.92,2.659,2.66a1.039,1.039,0,0,1,.308.74,1.025,1.025,0,0,1-.307.74l-1.919,1.92a1.066,1.066,0,0,1-1.483,0l-2.661-2.66Zm-6.243,26.4-1.177,1.18-3.4-3.4,1.176-1.18Zm-0.128-2.22,7.112-7.12,1.177,1.18-7.112,7.11Zm8.814-7.51-2.354-2.36,2.745-.39Zm-3.927-1.83,1.176,1.17-7.112,7.12-1.177-1.18Zm-9.248,16.05a2.374,2.374,0,0,1-1.7.71,2.41,2.41,0,0,1-2.406-2.41,2.382,2.382,0,0,1,.705-1.7l2.263-2.26,3.4,3.4Zm38.374-23.53-19.481,19.48-6.37-6.37,1.876-1.88,0.917-6.42-0.046.01a4.447,4.447,0,1,1,1.816,4.52l-0.85,1.21a5.935,5.935,0,1,0-2.5-5.51l-4.838.69-1.876,1.88-3.4-3.41,4.887-4.88,0.434,0.43a2.539,2.539,0,0,0,3.583,0l1.918-1.92a2.53,2.53,0,0,0,0-3.58l-0.435-.43,6.1-6.11,12.893,12.34,2.713-2.72a1.884,1.884,0,0,1,2.66,2.67h0Zm-18-10.2-3.275,3.27,3.275,3.28,3.275-3.28Zm-1.177,3.27,1.177-1.17,1.176,1.17-1.176,1.18Zm5.628,1.18-3.275,3.28,3.275,3.27,3.275-3.27Zm-1.176,3.28,1.176-1.18,1.177,1.18-1.177,1.17Zm2.353,4.45,3.275,3.27,3.275-3.27-3.275-3.28Zm3.275,1.17-1.177-1.17,1.177-1.18,1.177,1.18Zm-9.645,5.5a2.965,2.965,0,1,0-2.968-2.96A2.969,2.969,0,0,0,417.226,1648.93Zm0-4.45a1.485,1.485,0,1,1-1.484,1.49A1.49,1.49,0,0,1,417.226,1644.48Z" transform="translate(-392 -1620)"/>
</svg>
