<svg xmlns="http://www.w3.org/2000/svg" width="45" height="49" viewBox="0 0 45 49">
  <metadata><?xpacket begin="﻿" id="W5M0MpCehiHzreSzNTczkc9d"?>
<x:xmpmeta xmlns:x="adobe:ns:meta/" x:xmptk="Adobe XMP Core 5.6-c142 79.160924, 2017/07/13-01:06:39        ">
   <rdf:RDF xmlns:rdf="http://www.w3.org/1999/02/22-rdf-syntax-ns#">
      <rdf:Description rdf:about=""/>
   </rdf:RDF>
</x:xmpmeta>
                                                                                                    
                                                                                                    
                                                                                                    
                                                                                                    
                                                                                                    
                                                                                                    
                                                                                                    
                                                                                                    
                                                                                                    
                                                                                                    
                                                                                                    
                                                                                                    
                                                                                                    
                                                                                                    
                                                                                                    
                                                                                                    
                                                                                                    
                                                                                                    
                                                                                                    
                                                                                                    
                           
<?xpacket end="w"?></metadata>
<defs>
    <style>
      .cls-icon11 {
        fill: #f1c40f;
        fill-rule: evenodd;
      }
    </style>
  </defs>
  <path class="cls-icon11" d="M437.994,1796.57l-0.4-6.94a7.8,7.8,0,0,0-4.77-6.94l-1.373-.54-0.449-.17-7.437-2.89-0.087-.03c-0.012,0-.025-0.01-0.038-0.01s-0.032-.01-0.049-0.01-0.033-.01-0.049-0.01H423.3a0.121,0.121,0,0,0-.058-0.01h-0.074a1.022,1.022,0,0,0-.175.01H422.99a1.071,1.071,0,0,0-.5.23l-0.042.03-0.034.03-0.063.06-2.331-.79v-1.94a10.246,10.246,0,0,0,4.025-7.35h0.063a1.861,1.861,0,0,0,1.765-1.94v-1.82a2.065,2.065,0,0,0-.111-0.67,1.552,1.552,0,0,0,.72-1.33v-1.02a1.478,1.478,0,0,0-1.1-1.48v-0.29c0-.08,0-0.17,0-0.25a10.44,10.44,0,0,0-.381-2.58,0.658,0.658,0,0,0-.823-0.48,0.748,0.748,0,0,0-.437.91,8.837,8.837,0,0,1,.323,2.18c0,0.08,0,.15,0,0.22v0.99a0.69,0.69,0,0,0,.659.72h0.411a0.055,0.055,0,0,1,.033.06v1.02a0.049,0.049,0,0,1-.033.05H405.865a0.049,0.049,0,0,1-.032-0.05v-1.02a0.055,0.055,0,0,1,.032-0.06h0.411a0.691,0.691,0,0,0,.66-0.72v-0.99c0-.07,0-0.14,0-0.22a7.872,7.872,0,0,1,5.959-7.7v2.67a2.556,2.556,0,0,0,.633,1.7c0.005,0,.01.01,0.015,0.01s0.011,0.01.017,0.02a2.108,2.108,0,0,0,1.545.7h0.783a2.108,2.108,0,0,0,1.546-.7c0.006-.01.011-0.01,0.017-0.02s0.01-.01.015-0.01a2.556,2.556,0,0,0,.633-1.7v-2.67a7.138,7.138,0,0,1,4.543,3.13,0.619,0.619,0,0,0,.921.15,0.766,0.766,0,0,0,.142-1.01,8.383,8.383,0,0,0-5.848-3.77,2.2,2.2,0,0,0-1.97-1.33h-0.78a2.2,2.2,0,0,0-1.971,1.33,8.171,8.171,0,0,0-5.126,2.83,10,10,0,0,0-2.392,6.34c0,0.08,0,.17,0,0.25v0.29a1.478,1.478,0,0,0-1.1,1.48v1.02a1.552,1.552,0,0,0,.72,1.33,2.092,2.092,0,0,0-.111.67v1.82a1.861,1.861,0,0,0,1.766,1.94h0.062a10.249,10.249,0,0,0,4.025,7.37v1.92l-2.331.79-0.063-.06-0.033-.03-0.042-.03a1.082,1.082,0,0,0-.5-0.23h0a1.039,1.039,0,0,0-.177-0.01h-0.073a0.123,0.123,0,0,0-.059.01h-0.035c-0.017,0-.034.01-0.05,0.01s-0.032.01-.048,0.01-0.026.01-.039,0.01l-0.087.03-6.4,2.48-1.49.58h0l-1.374.54a7.8,7.8,0,0,0-4.77,6.94l-0.048.83a0.707,0.707,0,0,0,.616.77,0.685,0.685,0,0,0,.7-0.68l0.048-.83a6.387,6.387,0,0,1,3.893-5.67l0.5-.19v13.69h-4.03a0.719,0.719,0,0,1-.554-0.26,0.894,0.894,0,0,1-.206-0.63l0.185-3.19a0.708,0.708,0,0,0-.616-0.77,0.69,0.69,0,0,0-.7.68L393,1796.57a2.434,2.434,0,0,0,.56,1.71,2,2,0,0,0,1.516.72h40.839a2,2,0,0,0,1.516-.72A2.449,2.449,0,0,0,437.994,1796.57Zm-13.942-31.52h0.057a0.471,0.471,0,0,1,.447.49v1.82a0.471,0.471,0,0,1-.447.49h-0.057v-2.8Zm-9.837-12.62a0.986,0.986,0,0,1,.03-0.24l0-.02a0.916,0.916,0,0,1,.862-0.72h0.78a0.916,0.916,0,0,1,.862.72l0,0.02a0.986,0.986,0,0,1,.03.24v3.06a1.035,1.035,0,0,1-.261.7h0a0.044,0.044,0,0,1-.025.02,0.828,0.828,0,0,1-.607.27h-0.78a0.827,0.827,0,0,1-.607-0.27,0.044,0.044,0,0,1-.025-0.02h0a1.035,1.035,0,0,1-.261-0.7v-3.06h0Zm-7.27,15.42h-0.056a0.471,0.471,0,0,1-.448-0.49v-1.82a0.471,0.471,0,0,1,.448-0.49h0.056v2.8Zm-2.849,29.7h-3.669v-14.2l2.359-.92,1.31-.51v15.63Zm4.168-28.49v-4.01h14.47v3.52h0v0.48a8.784,8.784,0,0,1-3.969,6.74c-0.006,0-.012.01-0.017,0.01l-0.208.12a0.067,0.067,0,0,0-.035.02,4.242,4.242,0,0,1-.45.21l-0.061.03-0.166.06a0.159,0.159,0,0,0-.064.02c-0.074.02-.147,0.05-0.221,0.07l-0.086.02q-0.237.06-.45,0.12a6.207,6.207,0,0,1-1.55.25,7.814,7.814,0,0,1-2.022-.38,1.942,1.942,0,0,1-.221-0.07,0.138,0.138,0,0,1-.059-0.02l-0.175-.06a0.106,0.106,0,0,0-.05-0.02c-0.154-.07-0.308-0.14-0.46-0.22a0.014,0.014,0,0,0-.015-0.01A8.759,8.759,0,0,1,408.264,1769.06Zm3.226,10.88a1.252,1.252,0,0,0,.8-1.2v-1.29l0.146,0.06a0.712,0.712,0,0,0,.132.05c0.065,0.03.13,0.05,0.195,0.08a0.241,0.241,0,0,0,.081.02l0.264,0.09c0.224,0.06.434,0.11,0.633,0.16,0.058,0.02.116,0.03,0.172,0.05h0.021a6.54,6.54,0,0,0,1.509.2h0.009a6.929,6.929,0,0,0,1.655-.23c0.208-.05.427-0.11,0.663-0.17l0.086-.03a2.592,2.592,0,0,0,.265-0.08l0.087-.03,0.181-.06a0.4,0.4,0,0,1,.1-0.04l0.211-.09v1.31a1.253,1.253,0,0,0,.8,1.2l1.771,0.6c-0.006,0-.011.01-0.017,0.01-0.086.09-.175,0.17-0.264,0.25a0.165,0.165,0,0,0-.046.04c-0.09.07-.18,0.15-0.272,0.22a0.165,0.165,0,0,1-.046.04c-0.094.08-.188,0.15-0.284,0.22a0.066,0.066,0,0,1-.036.02,2.481,2.481,0,0,1-.3.21,0.012,0.012,0,0,1-.013.01c-0.1.07-.2,0.13-0.305,0.19l-0.042.03c-0.1.06-.2,0.11-0.3,0.17l-0.059.03-0.3.15-0.065.03c-0.1.04-.2,0.09-0.3,0.13l-0.064.03-0.315.12a0.117,0.117,0,0,0-.052.02c-0.107.03-.214,0.07-0.323,0.1a0.042,0.042,0,0,1-.032.01l-0.329.09c-0.018.01-.035,0.01-0.053,0.02-0.109.02-.22,0.05-0.33,0.07-0.022,0-.044.01-0.067,0.01-0.109.03-.219,0.04-0.329,0.06-0.023,0-.046.01-0.069,0.01-0.111.02-.223,0.03-0.335,0.04-0.021,0-.042.01-0.062,0.01-0.116.01-.232,0.02-0.349,0.02a0.066,0.066,0,0,0-.042.01H415.12a0.048,0.048,0,0,0-.035-0.01c-0.12,0-.24-0.01-0.359-0.02-0.016,0-.033-0.01-0.049-0.01-0.117-.01-0.234-0.02-0.35-0.04-0.017,0-.034-0.01-0.051-0.01l-0.347-.06a0.074,0.074,0,0,1-.045-0.01c-0.117-.02-0.235-0.05-0.351-0.08h-0.026c-0.244-.06-0.485-0.14-0.722-0.22-0.008,0-.017-0.01-0.025-0.01-0.113-.04-0.225-0.08-0.337-0.13a0.078,0.078,0,0,1-.041-0.02c-0.109-.04-0.216-0.09-0.323-0.14-0.015-.01-0.031-0.01-0.046-0.02-0.106-.05-0.211-0.1-0.316-0.16a0.078,0.078,0,0,1-.041-0.02c-0.106-.06-0.211-0.11-0.315-0.18-0.009,0-.018-0.01-0.027-0.01-0.216-.13-0.428-0.27-0.634-0.42-0.01-.01-0.019-0.01-0.029-0.02-0.1-.07-0.194-0.15-0.289-0.22l-0.042-.03c-0.092-.08-0.183-0.16-0.273-0.23a0.167,0.167,0,0,0-.047-0.04c-0.089-.08-0.176-0.16-0.263-0.25,0,0-.011-0.01-0.017-0.01Zm-3.7.55,0.575,0.63a9.552,9.552,0,0,0,7.123,3.24H415.5a9.385,9.385,0,0,0,4.722-1.27,10.314,10.314,0,0,0,2.223-1.76c0-.01.007-0.01,0.011-0.01,0.038-.04.076-0.09,0.114-0.13a0.45,0.45,0,0,0,.066-0.07h0l0.575-.63,0.518,0.2,0.213,0.08-0.841.95a10.138,10.138,0,0,1-15.2,0l-0.84-.95Zm17.8,17.06H405.414v-16.14l0.274-.11,1.268,1.44s0.006,0,.008.01a11.384,11.384,0,0,0,17.069,0c0-.01,0-0.01.008-0.01l1.268-1.44,0.274,0.11v16.14Zm4.987,0H426.9v-15.63l1.31,0.51,2.359,0.92v14.2Zm5.9-.26a0.722,0.722,0,0,1-.555.26h-4.03v-13.69l0.5,0.19a6.39,6.39,0,0,1,3.894,5.67l0.4,6.94A0.889,0.889,0,0,1,436.473,1797.29Z" transform="translate(-393 -1750)"/>
</svg>
