<svg xmlns="http://www.w3.org/2000/svg" width="41" height="42" viewBox="0 0 41 42">
  <metadata><?xpacket begin="﻿" id="W5M0MpCehiHzreSzNTczkc9d"?>
<x:xmpmeta xmlns:x="adobe:ns:meta/" x:xmptk="Adobe XMP Core 5.6-c142 79.160924, 2017/07/13-01:06:39        ">
   <rdf:RDF xmlns:rdf="http://www.w3.org/1999/02/22-rdf-syntax-ns#">
      <rdf:Description rdf:about=""/>
   </rdf:RDF>
</x:xmpmeta>
                                                                                                    
                                                                                                    
                                                                                                    
                                                                                                    
                                                                                                    
                                                                                                    
                                                                                                    
                                                                                                    
                                                                                                    
                                                                                                    
                                                                                                    
                                                                                                    
                                                                                                    
                                                                                                    
                                                                                                    
                                                                                                    
                                                                                                    
                                                                                                    
                                                                                                    
                                                                                                    
                           
<?xpacket end="w"?></metadata>
<defs>
    <style>
      .cls-1 {
        fill: #f1c40f;
        fill-rule: evenodd;
      }
    </style>
  </defs>
  <path id="ico" class="cls-1" d="M847.471,881.9a10.966,10.966,0,1,0-21.932,0,10.847,10.847,0,0,0,2.365,6.8c1.939,2.446,7.551,8.229,7.789,8.474l0.812,0.836,0.812-.836c0.238-.245,5.853-6.029,7.791-8.476A10.844,10.844,0,0,0,847.471,881.9Zm-10.966,12.854c-1.655-1.723-5.385-5.642-6.826-7.461A8.6,8.6,0,0,1,827.8,881.9a8.7,8.7,0,1,1,17.4,0,8.6,8.6,0,0,1-1.873,5.391C841.892,889.108,838.161,893.028,836.505,894.752Zm13.246-28.722v-5h-2.266v3.279l-10.98-8.324L816,871.533l1.368,1.808,1.681-1.275v22.065H828.8v-2.268h-7.483V870.349l15.191-11.515L851.7,870.349v21.514h-7.483v2.268h9.748V872.066l1.681,1.275,1.368-1.808Zm-13.246,9.08a6.671,6.671,0,1,0,6.665,6.671A6.675,6.675,0,0,0,836.505,875.11Zm0,11.075a4.4,4.4,0,1,1,4.4-4.4A4.407,4.407,0,0,1,836.505,886.185Z" transform="translate(-816 -856)"/>
</svg>
