<svg xmlns="http://www.w3.org/2000/svg" width="16" height="15.97" viewBox="0 0 16 15.97">
  <metadata><?xpacket begin="﻿" id="W5M0MpCehiHzreSzNTczkc9d"?>
<x:xmpmeta xmlns:x="adobe:ns:meta/" x:xmptk="Adobe XMP Core 5.6-c142 79.160924, 2017/07/13-01:06:39        ">
   <rdf:RDF xmlns:rdf="http://www.w3.org/1999/02/22-rdf-syntax-ns#">
      <rdf:Description rdf:about=""/>
   </rdf:RDF>
</x:xmpmeta>
                                                                                                    
                                                                                                    
                                                                                                    
                                                                                                    
                                                                                                    
                                                                                                    
                                                                                                    
                                                                                                    
                                                                                                    
                                                                                                    
                                                                                                    
                                                                                                    
                                                                                                    
                                                                                                    
                                                                                                    
                                                                                                    
                                                                                                    
                                                                                                    
                                                                                                    
                                                                                                    
                           
<?xpacket end="w"?></metadata>
<defs>
    <style>
      .cls-icon7 {
        fill: #9cb1bc;
        fill-rule: evenodd;
      }
    </style>
  </defs>
  <path id="note" class="cls-icon7" d="M873.8,4462.75l-2.6,10.55a0.461,0.461,0,0,0,.337.56,0.81,0.81,0,0,0,.22,0l10.552-2.6a0.467,0.467,0,0,0,.32-0.28l1.87-4.97c0.128,0.02.258,0.03,0.388,0.04a2.3,2.3,0,0,0,1.629-3.93l-3.577-3.58a2.3,2.3,0,0,0-3.89,2.02l-4.978,1.87A0.476,0.476,0,0,0,873.8,4462.75Zm6.538-3.55a1.379,1.379,0,0,1,1.952,0h0l3.579,3.57a1.383,1.383,0,0,1-1.953,1.95l-3.579-3.57A1.38,1.38,0,0,1,880.338,4459.2Zm-0.957,2.22a2.37,2.37,0,0,0,.306.38l3.589,3.57a2.158,2.158,0,0,0,.379.31l-1.8,4.75-8.719,2.14,3.777-3.78a1.813,1.813,0,0,0,2.218-.28h0a1.823,1.823,0,1,0-2.862-.37l-3.782,3.78,2.144-8.72Zm-2.445,5.8a0.9,0.9,0,0,1,1.808,0,0.9,0.9,0,0,1-1.544.64A0.9,0.9,0,0,1,876.936,4467.22Z" transform="translate(-871.188 -4457.91)"/>
</svg>
