<svg xmlns="http://www.w3.org/2000/svg" width="39" height="39" viewBox="0 0 39 39">
  <metadata><?xpacket begin="﻿" id="W5M0MpCehiHzreSzNTczkc9d"?>
<x:xmpmeta xmlns:x="adobe:ns:meta/" x:xmptk="Adobe XMP Core 5.6-c142 79.160924, 2017/07/13-01:06:39        ">
   <rdf:RDF xmlns:rdf="http://www.w3.org/1999/02/22-rdf-syntax-ns#">
      <rdf:Description rdf:about=""/>
   </rdf:RDF>
</x:xmpmeta>
                                                                                                    
                                                                                                    
                                                                                                    
                                                                                                    
                                                                                                    
                                                                                                    
                                                                                                    
                                                                                                    
                                                                                                    
                                                                                                    
                                                                                                    
                                                                                                    
                                                                                                    
                                                                                                    
                                                                                                    
                                                                                                    
                                                                                                    
                                                                                                    
                                                                                                    
                                                                                                    
                           
<?xpacket end="w"?></metadata>
<defs>
    <style>
      .cls-1 {
        fill: #f1c40f;
        fill-rule: evenodd;
      }
    </style>
  </defs>
  <path id="ico" class="cls-1" d="M501.1,885.926l-4.826-4.994-0.014-.014a3.425,3.425,0,0,0-4.847,0l-2.2,2.2a2.6,2.6,0,0,1-3.672,0h0l-7.663-7.482a2.6,2.6,0,0,1,0-3.672l2.2-2.2a3.431,3.431,0,0,0,0-4.848l-4.847-4.848a3.433,3.433,0,0,0-4.848,0l-1.616,1.616-0.147.147a12.354,12.354,0,0,0,0,17.482l13.246,13.064a12.353,12.353,0,0,0,17.463.017c0.027-.025,1.739-1.6,1.764-1.628A3.43,3.43,0,0,0,501.1,885.926ZM472,861.683a1.145,1.145,0,0,1,1.616,0l4.847,4.848a1.141,1.141,0,0,1,0,1.616l-0.808.807-6.463-6.463Zm11.483,29.076L470.236,877.7a10.071,10.071,0,0,1-.63-13.558l6.44,6.441a4.89,4.89,0,0,0,.214,6.678l7.664,7.483a4.878,4.878,0,0,0,6.675.211l6.44,6.44A10.043,10.043,0,0,1,483.482,890.759Zm16.01-1.623-0.768.707-6.5-6.5,0.807-.807a1.143,1.143,0,0,1,1.611-.006l4.837,5A1.144,1.144,0,0,1,499.492,889.136ZM484.576,857a1.143,1.143,0,0,0,0,2.286,17.158,17.158,0,0,1,17.139,17.138,1.143,1.143,0,1,0,2.285,0A19.413,19.413,0,0,0,484.576,857Zm0,4.571a1.143,1.143,0,0,0,0,2.285,12.582,12.582,0,0,1,12.568,12.568,1.143,1.143,0,1,0,2.285,0A14.87,14.87,0,0,0,484.576,861.57Zm0,4.57a1.143,1.143,0,0,0,0,2.285,8.007,8.007,0,0,1,8,8,1.143,1.143,0,1,0,2.285,0A10.3,10.3,0,0,0,484.576,866.14Zm0,4.57a1.143,1.143,0,0,0,0,2.285A3.432,3.432,0,0,1,488,876.423a1.143,1.143,0,1,0,2.285,0A5.72,5.72,0,0,0,484.576,870.71Z" transform="translate(-465 -857)"/>
</svg>
