<svg xmlns="http://www.w3.org/2000/svg" width="39" height="36" viewBox="0 0 39 36">
  <metadata><?xpacket begin="﻿" id="W5M0MpCehiHzreSzNTczkc9d"?>
<x:xmpmeta xmlns:x="adobe:ns:meta/" x:xmptk="Adobe XMP Core 5.6-c142 79.160924, 2017/07/13-01:06:39        ">
   <rdf:RDF xmlns:rdf="http://www.w3.org/1999/02/22-rdf-syntax-ns#">
      <rdf:Description rdf:about=""/>
   </rdf:RDF>
</x:xmpmeta>
                                                                                                    
                                                                                                    
                                                                                                    
                                                                                                    
                                                                                                    
                                                                                                    
                                                                                                    
                                                                                                    
                                                                                                    
                                                                                                    
                                                                                                    
                                                                                                    
                                                                                                    
                                                                                                    
                                                                                                    
                                                                                                    
                                                                                                    
                                                                                                    
                                                                                                    
                                                                                                    
                           
<?xpacket end="w"?></metadata>
<defs>
    <style>
      .cls-1 {
        fill: #f1c40f;
        fill-rule: evenodd;
      }
    </style>
  </defs>
  <path id="ico" class="cls-1" d="M312.969,872.594a0.559,0.559,0,0,0-.036-0.2,0.984,0.984,0,0,0-.392-0.548l-5.582-3.834v-4.11a0.993,0.993,0,0,0-1-.987h-6.422l-5.464-3.754a1.009,1.009,0,0,0-1.137,0l-5.5,3.755h-6.393a0.993,0.993,0,0,0-1,.987v4.062l-5.608,3.83a0.98,0.98,0,0,0-.431.8c0,0.006,0,.011,0,0.017L274.037,894a0.982,0.982,0,0,0,.293.7,1.007,1.007,0,0,0,.705.288h0l36.965-.05a0.993,0.993,0,0,0,1-.989Zm-6.01-2.174,3.191,2.191-3.191,2.192V870.42ZM293.5,861.176l2.537,1.743h-5.088Zm-11.46,3.716h22.918v11.283l-7.695,5.286-3.137-2.4-0.014-.009a1.007,1.007,0,0,0-1.21.009l-3.16,2.423-7.7-5.26V864.892Zm-2,5.475v4.488l-3.286-2.244Zm-4.04,4.128,12.083,8.253-12.059,9.243Zm1.951,18.517,15.56-11.927,15.505,11.884Zm20.963-10.283,12.054-8.281L311,891.987Zm1.342-13.889h-13.52a0.987,0.987,0,1,0,0,1.973h13.52A0.987,0.987,0,1,0,300.263,868.84Zm0,5.131h-13.52a0.987,0.987,0,1,0,0,1.973h13.52A0.987,0.987,0,1,0,300.263,873.971Z" transform="translate(-274 -859)"/>
</svg>
