<svg xmlns="http://www.w3.org/2000/svg" width="16" height="16" viewBox="0 0 16 16">
  <metadata><?xpacket begin="﻿" id="W5M0MpCehiHzreSzNTczkc9d"?>
<x:xmpmeta xmlns:x="adobe:ns:meta/" x:xmptk="Adobe XMP Core 5.6-c142 79.160924, 2017/07/13-01:06:39        ">
   <rdf:RDF xmlns:rdf="http://www.w3.org/1999/02/22-rdf-syntax-ns#">
      <rdf:Description rdf:about=""/>
   </rdf:RDF>
</x:xmpmeta>
                                                                                                    
                                                                                                    
                                                                                                    
                                                                                                    
                                                                                                    
                                                                                                    
                                                                                                    
                                                                                                    
                                                                                                    
                                                                                                    
                                                                                                    
                                                                                                    
                                                                                                    
                                                                                                    
                                                                                                    
                                                                                                    
                                                                                                    
                                                                                                    
                                                                                                    
                                                                                                    
                           
<?xpacket end="w"?></metadata>
<defs>
    <style>
      .cls-icon12 {
        fill: #9cb1bc;
        fill-rule: evenodd;
      }
    </style>
  </defs>
  <path id="date" class="cls-icon12" d="M801.543,4459.41h-0.649v-1.06a0.483,0.483,0,0,0-.963,0v1.06h-6.013v-1.06a0.483,0.483,0,0,0-.963,0v1.06h-0.649a3.266,3.266,0,0,0-3.368,3.13v8.23a3.274,3.274,0,0,0,3.368,3.14h9.261a3.274,3.274,0,0,0,3.368-3.14v-8.23A3.288,3.288,0,0,0,801.543,4459.41Zm0,13.6h-9.237a2.335,2.335,0,0,1-2.405-2.24v-6.21h14.072v6.21A2.373,2.373,0,0,1,801.543,4473.01Zm2.406-9.35H789.9v-1.12a2.335,2.335,0,0,1,2.405-2.24h0.649v1.06a0.483,0.483,0,0,0,.963,0v-1.06h6.013v1.06a0.483,0.483,0,0,0,.963,0v-1.06h0.649a2.336,2.336,0,0,1,2.406,2.24v1.12Zm-2.959,5.83h-8.131a0.451,0.451,0,1,0,0,.9h8.107a0.466,0.466,0,0,0,.481-0.45A0.445,0.445,0,0,0,800.99,4469.49Zm-6.76-1.64h5.413a0.446,0.446,0,1,0,0-.89H794.23A0.446,0.446,0,1,0,794.23,4467.85Z" transform="translate(-788.938 -4457.91)"/>
</svg>
