<svg xmlns="http://www.w3.org/2000/svg" width="16" height="18.032" viewBox="0 0 16 18.032">
  <metadata><?xpacket begin="﻿" id="W5M0MpCehiHzreSzNTczkc9d"?>
<x:xmpmeta xmlns:x="adobe:ns:meta/" x:xmptk="Adobe XMP Core 5.6-c142 79.160924, 2017/07/13-01:06:39        ">
   <rdf:RDF xmlns:rdf="http://www.w3.org/1999/02/22-rdf-syntax-ns#">
      <rdf:Description rdf:about=""/>
   </rdf:RDF>
</x:xmpmeta>
                                                                                                    
                                                                                                    
                                                                                                    
                                                                                                    
                                                                                                    
                                                                                                    
                                                                                                    
                                                                                                    
                                                                                                    
                                                                                                    
                                                                                                    
                                                                                                    
                                                                                                    
                                                                                                    
                                                                                                    
                                                                                                    
                                                                                                    
                                                                                                    
                                                                                                    
                                                                                                    
                           
<?xpacket end="w"?></metadata>
<defs>
    <style>
      .cls-1 {
        fill: #f1c40f;
        fill-rule: evenodd;
      }
    </style>
  </defs>
  <path id="Icon" class="cls-1" d="M1339.5,689.96l-7.26-3.828a0.743,0.743,0,0,0-.72,0l-7.26,3.828a0.7,0.7,0,0,0-.35.608v8.943a0.7,0.7,0,0,0,.38.609l7.26,3.835a0.743,0.743,0,0,0,.72,0l7.26-3.835a0.687,0.687,0,0,0,.37-0.609v-8.943A0.683,0.683,0,0,0,1339.5,689.96Zm-1.08,9.143-6.53,3.461-6.53-3.461v-8.126l6.53-3.461,6.53,3.461V699.1Zm-10.15-4.063a3.629,3.629,0,1,0,3.62-3.461A3.543,3.543,0,0,0,1328.27,695.04Zm5.8,0a2.177,2.177,0,1,1-2.18-2.077A2.126,2.126,0,0,1,1334.07,695.04Z" transform="translate(-1323.91 -686.031)"/>
</svg>
