<svg xmlns="http://www.w3.org/2000/svg" width="50" height="49" viewBox="0 0 50 49">
  <metadata><?xpacket begin="﻿" id="W5M0MpCehiHzreSzNTczkc9d"?>
<x:xmpmeta xmlns:x="adobe:ns:meta/" x:xmptk="Adobe XMP Core 5.6-c142 79.160924, 2017/07/13-01:06:39        ">
   <rdf:RDF xmlns:rdf="http://www.w3.org/1999/02/22-rdf-syntax-ns#">
      <rdf:Description rdf:about=""/>
   </rdf:RDF>
</x:xmpmeta>
                                                                                                    
                                                                                                    
                                                                                                    
                                                                                                    
                                                                                                    
                                                                                                    
                                                                                                    
                                                                                                    
                                                                                                    
                                                                                                    
                                                                                                    
                                                                                                    
                                                                                                    
                                                                                                    
                                                                                                    
                                                                                                    
                                                                                                    
                                                                                                    
                                                                                                    
                                                                                                    
                           
<?xpacket end="w"?></metadata>
<defs>
    <style>
      .cls-icon3 {
        fill: #f1c40f;
        fill-rule: evenodd;
      }
    </style>
  </defs>
  <path class="cls-icon3" d="M822.181,1793.5a2.336,2.336,0,1,0,3.5-2.01,2.384,2.384,0,0,0-1.169-.31A2.33,2.33,0,0,0,822.181,1793.5Zm3.181,0a0.845,0.845,0,1,1-.845-0.84,0.879,0.879,0,0,1,.422.11A0.845,0.845,0,0,1,825.362,1793.5Zm5.517,2.33a2.324,2.324,0,0,0,1.169-4.34,2.384,2.384,0,0,0-1.169-.31A2.325,2.325,0,1,0,830.879,1795.83Zm0-3.17a0.879,0.879,0,0,1,.422.11,0.857,0.857,0,0,1,.423.73A0.845,0.845,0,1,1,830.879,1792.66Zm6.362,3.17a2.324,2.324,0,0,0,1.169-4.34,2.387,2.387,0,0,0-1.169-.31A2.325,2.325,0,1,0,837.241,1795.83Zm0-3.17a0.885,0.885,0,0,1,.422.11,0.856,0.856,0,0,1,.422.73A0.845,0.845,0,1,1,837.241,1792.66Zm6.361,3.17a2.325,2.325,0,0,0,1.17-4.34,2.388,2.388,0,0,0-1.17-.31A2.325,2.325,0,1,0,843.6,1795.83Zm0-3.17a0.886,0.886,0,0,1,.423.11,0.858,0.858,0,0,1,.422.73A0.845,0.845,0,1,1,843.6,1792.66Zm-18.29-11.88h0.795a0.74,0.74,0,1,0,0-1.48h-0.795A0.74,0.74,0,1,0,825.312,1780.78Zm0,2.38h0.795a0.742,0.742,0,0,0,.746-0.74,0.751,0.751,0,0,0-.746-0.75h-0.795a0.75,0.75,0,0,0-.745.75A0.741,0.741,0,0,0,825.312,1783.16Zm43.372-7.45-12.678-23.86a3.136,3.136,0,0,0-5.438-.5h0l-12.131,16.1a4.281,4.281,0,0,0-.509-0.03h-5.455a3.92,3.92,0,0,0-3.926,3.91v4.8h-4.821a2.339,2.339,0,0,0-2.336,2.33V1784a2.339,2.339,0,0,0,2.336,2.33h6.411v1.68h-5.616a5.5,5.5,0,1,0,0,10.99H843.6a5.5,5.5,0,1,0,0-10.99h-5.616v-1.68H844.4a0.751,0.751,0,0,0,.745-0.75v-2.42h0.921a0.025,0.025,0,0,1,.023-0.01,0.092,0.092,0,0,0,.051-0.01,0.059,0.059,0,0,0,.04-0.01h0.032a0.025,0.025,0,0,1,.024-0.01c0.015-.01.03-0.01,0.044-0.02h0a0.593,0.593,0,0,0,.122-0.07,0.053,0.053,0,0,0,.028-0.02c0.009-.01.02-0.01,0.029-0.02l0.029-.03a0.04,0.04,0,0,0,.024-0.02,0.038,0.038,0,0,0,.02-0.02l0.028-.03s0.006-.01.01-0.01c0.011-.02.023-0.03,0.033-0.05a0.03,0.03,0,0,0,.013-0.02c0.009-.01.017-0.03,0.025-0.04a0.782,0.782,0,0,0,.082-0.25,0.842,0.842,0,0,0,.008-0.1v-2.84a7,7,0,0,0-1.194-3.92l-1.182-1.77,8.191-13.69,12.1,17.84a2.353,2.353,0,0,0,1.272,1.04v1.22l-0.217-.54a0.757,0.757,0,0,0-.97-0.41l-10.188,4.08-1.755-1.44a0.746,0.746,0,0,0-1.05.1,0.734,0.734,0,0,0,.1,1.04l5.5,4.52a5.507,5.507,0,0,0,5.566.86l2.537-1.02a3.105,3.105,0,0,0,1.94-2.51,0.76,0.76,0,0,0,.024-0.19v-5.71a2.331,2.331,0,0,0,1.591-2.21A2.291,2.291,0,0,0,868.684,1775.71Zm-40.141,9.13h-4.821a0.845,0.845,0,0,1-.845-0.84v-5.54a0.839,0.839,0,0,1,.845-0.84h4.821v7.22Zm36.346,1.28-2.537,1.01a4.018,4.018,0,0,1-4.062-.63l-2.437-2,8.742-3.49,1.2,2.98A1.64,1.64,0,0,1,864.889,1786.12Zm-11.744-34.64a1.641,1.641,0,0,1,1.43.84,0.874,0.874,0,0,0,.039.09l0.048,0.09a1.611,1.611,0,0,1-.115,1.46c0,0.01-.01.01-0.014,0.02l-0.031.05a1.64,1.64,0,0,1-3-.91A1.645,1.645,0,0,1,853.145,1751.48Zm-9.543,38.01a4.01,4.01,0,1,1,0,8.02H824.517a4.01,4.01,0,1,1,0-8.02H843.6Zm-11.978-1.48v-1.68H836.5v1.68h-4.871Zm12.028-3.17H830.034v-7.97h0v-5.54a2.435,2.435,0,0,1,1.69-2.31v10.67a2.236,2.236,0,0,0,1.334,2.04,16.573,16.573,0,0,0,6.762,1.43h3.832v1.68Zm1.59-5.26v2.09H839.82a15.319,15.319,0,0,1-2.629-.22v-10.12a0.746,0.746,0,0,0-1.491,0v9.78a15.226,15.226,0,0,1-2.036-.74,0.749,0.749,0,0,1-.449-0.68v-10.78h4.709a2.423,2.423,0,0,1,2.026,1.08l4.349,6.49A5.566,5.566,0,0,1,845.242,1779.58Zm-1.8-7.06-2.251-3.36a3.97,3.97,0,0,0-1.276-1.2l10.32-13.7a3.132,3.132,0,0,0,2.91,1.98c0.014,0,.027-0.01.04-0.01Zm21.308,3.02-11.358-16.75,2.384-3.99,0.061-.09,10.552,19.85A2.343,2.343,0,0,0,864.75,1775.54Zm1.914,2.18a0.845,0.845,0,1,1,.845-0.85A0.848,0.848,0,0,1,866.664,1777.72Z" transform="translate(-819 -1750)"/>
</svg>
