<svg xmlns="http://www.w3.org/2000/svg" width="16" height="19" viewBox="0 0 16 19">
  <metadata><?xpacket begin="﻿" id="W5M0MpCehiHzreSzNTczkc9d"?>
<x:xmpmeta xmlns:x="adobe:ns:meta/" x:xmptk="Adobe XMP Core 5.6-c142 79.160924, 2017/07/13-01:06:39        ">
   <rdf:RDF xmlns:rdf="http://www.w3.org/1999/02/22-rdf-syntax-ns#">
      <rdf:Description rdf:about=""/>
   </rdf:RDF>
</x:xmpmeta>
                                                                                                    
                                                                                                    
                                                                                                    
                                                                                                    
                                                                                                    
                                                                                                    
                                                                                                    
                                                                                                    
                                                                                                    
                                                                                                    
                                                                                                    
                                                                                                    
                                                                                                    
                                                                                                    
                                                                                                    
                                                                                                    
                                                                                                    
                                                                                                    
                                                                                                    
                                                                                                    
                           
<?xpacket end="w"?></metadata>
<defs>
    <style>
      .cls-1 {
        fill: #f1c40f;
        fill-rule: evenodd;
      }
    </style>
  </defs>
  <path id="Icon" class="cls-1" d="M1332,791l-0.32-.182c-0.32-.179-7.68-4.453-7.68-10.875a8,8,0,0,1,15.99,0c0,6.422-7.36,10.7-7.68,10.875Zm0-17.73a6.7,6.7,0,0,0-6.72,6.673c0,4.988,5.34,8.706,6.72,9.579,1.37-.875,6.72-4.6,6.72-9.579A6.708,6.708,0,0,0,1332,773.269Zm0,10.9a4.233,4.233,0,1,1,4.26-4.232A4.259,4.259,0,0,1,1332,784.172Zm0-7.2a2.963,2.963,0,1,0,2.98,2.963A2.979,2.979,0,0,0,1332,776.977Z" transform="translate(-1324 -772)"/>
</svg>
