<svg xmlns="http://www.w3.org/2000/svg" width="18" height="16" viewBox="0 0 18 16">
  <metadata><?xpacket begin="﻿" id="W5M0MpCehiHzreSzNTczkc9d"?>
<x:xmpmeta xmlns:x="adobe:ns:meta/" x:xmptk="Adobe XMP Core 5.6-c142 79.160924, 2017/07/13-01:06:39        ">
   <rdf:RDF xmlns:rdf="http://www.w3.org/1999/02/22-rdf-syntax-ns#">
      <rdf:Description rdf:about=""/>
   </rdf:RDF>
</x:xmpmeta>
                                                                                                    
                                                                                                    
                                                                                                    
                                                                                                    
                                                                                                    
                                                                                                    
                                                                                                    
                                                                                                    
                                                                                                    
                                                                                                    
                                                                                                    
                                                                                                    
                                                                                                    
                                                                                                    
                                                                                                    
                                                                                                    
                                                                                                    
                                                                                                    
                                                                                                    
                                                                                                    
                           
<?xpacket end="w"?></metadata>
<defs>
    <style>
      .cls-1 {
        fill: #f1c40f;
        fill-rule: evenodd;
      }
    </style>
  </defs>
  <path id="Icon" class="cls-1" d="M1110.16,688.522h-5.77a1.684,1.684,0,0,1-1.21-.508l-1.28-1.309a2.757,2.757,0,0,0-1.98-.832h-2.28a2.723,2.723,0,0,0-2.74,2.7v10.6a2.723,2.723,0,0,0,2.74,2.7h12.52a2.725,2.725,0,0,0,2.75-2.7v-7.945A2.726,2.726,0,0,0,1110.16,688.522Zm1.68,10.645a1.663,1.663,0,0,1-1.68,1.647h-12.52a1.661,1.661,0,0,1-1.67-1.647v-10.6a1.661,1.661,0,0,1,1.67-1.646h2.28a1.68,1.68,0,0,1,1.21.508l1.27,1.309a2.8,2.8,0,0,0,1.99.832h5.77a1.664,1.664,0,0,1,1.68,1.648v7.945Zm-2.5-.912a0.53,0.53,0,0,1-.53.526h-5.35a0.527,0.527,0,1,1,0-1.053h5.35A0.53,0.53,0,0,1,1109.34,698.255Z" transform="translate(-1094.91 -685.875)"/>
</svg>
