<svg xmlns="http://www.w3.org/2000/svg" width="16" height="16" viewBox="0 0 16 16">
  <metadata><?xpacket begin="﻿" id="W5M0MpCehiHzreSzNTczkc9d"?>
<x:xmpmeta xmlns:x="adobe:ns:meta/" x:xmptk="Adobe XMP Core 5.6-c142 79.160924, 2017/07/13-01:06:39        ">
   <rdf:RDF xmlns:rdf="http://www.w3.org/1999/02/22-rdf-syntax-ns#">
      <rdf:Description rdf:about=""/>
   </rdf:RDF>
</x:xmpmeta>
                                                                                                    
                                                                                                    
                                                                                                    
                                                                                                    
                                                                                                    
                                                                                                    
                                                                                                    
                                                                                                    
                                                                                                    
                                                                                                    
                                                                                                    
                                                                                                    
                                                                                                    
                                                                                                    
                                                                                                    
                                                                                                    
                                                                                                    
                                                                                                    
                                                                                                    
                                                                                                    
                           
<?xpacket end="w"?></metadata>
<defs>
    <style>
      .cls-1 {
        fill: #f1c40f;
        fill-rule: evenodd;
      }
    </style>
  </defs>
  <path id="Icon" class="cls-1" d="M1110.31,776.147h-1.55v-0.692a0.45,0.45,0,1,0-.9,0v2.38a0.892,0.892,0,0,0-.46.776,0.91,0.91,0,1,0,1.36-.776v-0.776h1.55a1.68,1.68,0,0,1,1.69,1.687v1.4h-14.18v-1.4a1.691,1.691,0,0,1,1.68-1.687h0.8v-0.912h-0.8a2.6,2.6,0,0,0-2.59,2.6V788.4a2.6,2.6,0,0,0,2.59,2.6h10.81a2.6,2.6,0,0,0,2.6-2.6v-9.654A2.6,2.6,0,0,0,1110.31,776.147ZM1112,788.4a1.683,1.683,0,0,1-1.69,1.688H1099.5a1.679,1.679,0,0,1-1.68-1.688v-7.342h14.19V788.4H1112Zm-11.37-3.6h0.76a0.979,0.979,0,1,0,0-1.958h-0.76A0.979,0.979,0,0,0,1100.63,784.805Zm3.91,0h0.76a0.979,0.979,0,0,0,0-1.958h-0.76A0.979,0.979,0,1,0,1104.54,784.805Zm3.9,0h0.76a0.979,0.979,0,1,0,0-1.958h-0.76A0.979,0.979,0,0,0,1108.44,784.805Zm-7.81,3.46h0.76a0.979,0.979,0,1,0,0-1.958h-0.76A0.979,0.979,0,0,0,1100.63,788.265Zm3.91,0h0.76a0.979,0.979,0,0,0,0-1.958h-0.76A0.979,0.979,0,1,0,1104.54,788.265Zm3.9,0h0.76a0.979,0.979,0,1,0,0-1.958h-0.76A0.979,0.979,0,0,0,1108.44,788.265Zm-6.93-8.759a0.9,0.9,0,0,0,.45-1.688v-0.776h5.15v-0.895h-5.15v-0.692a0.45,0.45,0,0,0-.45-0.455,0.459,0.459,0,0,0-.46.455v2.38a0.883,0.883,0,0,0-.45.776A0.9,0.9,0,0,0,1101.51,779.506Z" transform="translate(-1096.91 -775)"/>
</svg>
