<svg xmlns="http://www.w3.org/2000/svg" width="50" height="49" viewBox="0 0 50 49">
  <metadata><?xpacket begin="﻿" id="W5M0MpCehiHzreSzNTczkc9d"?>
<x:xmpmeta xmlns:x="adobe:ns:meta/" x:xmptk="Adobe XMP Core 5.6-c142 79.160924, 2017/07/13-01:06:39        ">
   <rdf:RDF xmlns:rdf="http://www.w3.org/1999/02/22-rdf-syntax-ns#">
      <rdf:Description rdf:about=""/>
   </rdf:RDF>
</x:xmpmeta>
                                                                                                    
                                                                                                    
                                                                                                    
                                                                                                    
                                                                                                    
                                                                                                    
                                                                                                    
                                                                                                    
                                                                                                    
                                                                                                    
                                                                                                    
                                                                                                    
                                                                                                    
                                                                                                    
                                                                                                    
                                                                                                    
                                                                                                    
                                                                                                    
                                                                                                    
                                                                                                    
                           
<?xpacket end="w"?></metadata>
<defs>
    <style>
      .cls-icon1 {
        fill: #f1c40f;
        fill-rule: evenodd;
      }
    </style>
  </defs>
  <path class="cls-icon1" d="M867.213,1666.49v-19.82l-12.755-6.03v-15.36H851.4v-4.02h-6.632V1619h-1.531v2.26H836.6v4.02h-3.061v14.07h-3.062v-4.27h-1.53v4.27h-5.612v4.02h-2.551v23.12H819V1668h50v-1.51h-1.786Zm-33.672-17.59H824.1v1.51h9.439v2.51H824.1v1.51h9.439v2.51H824.1v1.51h9.439v2.51H824.1v1.51h9.439v4.02H822.316v-21.61h11.225v4.02h0Zm0-5.53h-8.674v-2.51h8.674v2.51h0Zm4.591-20.6h11.735v2.51H838.132v-2.51Zm14.8,43.72H835.071v-39.7h17.857v39.7h0Zm12.755-4.02h-3.061v-2.51h3.061v2.51h0Zm0-8.04h-3.061v-2.51h3.061v2.51h0Zm0-4.02H856.5v5.53h9.184v2.51H856.5v5.53h9.184v2.51H854.458v-24.18l11.225,5.31v2.79Zm-4.592,1.51v2.51H858.03v-2.51h3.061Zm0,8.04v2.51H858.03v-2.51h3.061Zm-4.847-13.07h2.041v1.51h-2.041v-1.51Zm-13.775-17.09h3.061v1.51h-3.061v-1.51Zm0,4.02h3.061v1.51h-3.061v-1.51Zm0,4.03h3.061v1.5h-3.061v-1.5Zm0,4.02h3.061v1.5h-3.061v-1.5Zm5.1,0h3.061v1.5h-3.061v-1.5Zm-10.2,0h3.061v1.5h-3.061v-1.5Zm5.1,4.02h3.061v1.5h-3.061v-1.5Zm5.1,0h3.061v1.5h-3.061v-1.5Zm-10.2,0h3.061v1.5h-3.061v-1.5Zm5.1,4.02h3.061v1.5h-3.061v-1.5Zm5.1,0h3.061v1.5h-3.061v-1.5Zm-10.2,0h3.061v1.5h-3.061v-1.5Zm5.1,4.02h3.061v1.5h-3.061v-1.5Zm5.1,0h3.061v1.5h-3.061v-1.5Zm-10.2,0h3.061v1.5h-3.061v-1.5Zm5.1,4.02h3.061v1.51h-3.061v-1.51Zm5.1,0h3.061v1.51h-3.061v-1.51Zm-10.2,0h3.061v1.51h-3.061v-1.51Zm5.1,4.02h3.061v1.51h-3.061v-1.51Zm5.1,0h3.061v1.51h-3.061v-1.51Zm-10.2,0h3.061v1.51h-3.061v-1.51Zm10.2-24.12h3.061v1.5h-3.061v-1.5Zm-10.2,0h3.061v1.5h-3.061v-1.5Zm10.2-4.03h3.061v1.51h-3.061v-1.51Zm-10.2,0h3.061v1.51h-3.061v-1.51Zm10.2-4.02h3.061v1.51h-3.061v-1.51Zm-10.2,0h3.061v1.51h-3.061v-1.51Z" transform="translate(-819 -1619)"/>
</svg>
