<svg xmlns="http://www.w3.org/2000/svg" width="17.875" height="18" viewBox="0 0 17.875 18">
  <metadata><?xpacket begin="﻿" id="W5M0MpCehiHzreSzNTczkc9d"?>
<x:xmpmeta xmlns:x="adobe:ns:meta/" x:xmptk="Adobe XMP Core 5.6-c142 79.160924, 2017/07/13-01:06:39        ">
   <rdf:RDF xmlns:rdf="http://www.w3.org/1999/02/22-rdf-syntax-ns#">
      <rdf:Description rdf:about=""/>
   </rdf:RDF>
</x:xmpmeta>
                                                                                                    
                                                                                                    
                                                                                                    
                                                                                                    
                                                                                                    
                                                                                                    
                                                                                                    
                                                                                                    
                                                                                                    
                                                                                                    
                                                                                                    
                                                                                                    
                                                                                                    
                                                                                                    
                                                                                                    
                                                                                                    
                                                                                                    
                                                                                                    
                                                                                                    
                                                                                                    
                           
<?xpacket end="w"?></metadata>
<defs>
    <style>
      .cls-ins {
        fill: white;
        fill-rule: evenodd;
      }
    </style>
  </defs>
  <path id="Instagram" class="cls-ins" d="M497.951,5142h-8.015a4.957,4.957,0,0,0-4.936,4.96v8.07a4.959,4.959,0,0,0,4.936,4.97h8.015a4.96,4.96,0,0,0,4.937-4.97v-8.07A4.958,4.958,0,0,0,497.951,5142Zm3.35,13.03a3.363,3.363,0,0,1-3.35,3.37h-8.015a3.362,3.362,0,0,1-3.349-3.37v-8.07a3.368,3.368,0,0,1,3.349-3.37h8.015a3.368,3.368,0,0,1,3.349,3.37v8.07h0Zm-7.357-8.67a4.64,4.64,0,1,0,4.609,4.64A4.629,4.629,0,0,0,493.944,5146.36Zm0,7.68a3.04,3.04,0,1,1,3.022-3.04A3.039,3.039,0,0,1,493.944,5154.04Zm4.8-9.03a1.154,1.154,0,0,0-.822.34,1.187,1.187,0,0,0-.342.83,1.164,1.164,0,0,0,2.328,0,1.187,1.187,0,0,0-.341-0.83A1.153,1.153,0,0,0,498.746,5145.01Z" transform="translate(-485 -5142)"/>
</svg>
