<svg xmlns="http://www.w3.org/2000/svg" width="15.5" height="15.37" viewBox="0 0 15.5 15.37">
  <metadata><?xpacket begin="﻿" id="W5M0MpCehiHzreSzNTczkc9d"?>
<x:xmpmeta xmlns:x="adobe:ns:meta/" x:xmptk="Adobe XMP Core 5.6-c142 79.160924, 2017/07/13-01:06:39        ">
   <rdf:RDF xmlns:rdf="http://www.w3.org/1999/02/22-rdf-syntax-ns#">
      <rdf:Description rdf:about=""/>
   </rdf:RDF>
</x:xmpmeta>
                                                                                                    
                                                                                                    
                                                                                                    
                                                                                                    
                                                                                                    
                                                                                                    
                                                                                                    
                                                                                                    
                                                                                                    
                                                                                                    
                                                                                                    
                                                                                                    
                                                                                                    
                                                                                                    
                                                                                                    
                                                                                                    
                                                                                                    
                                                                                                    
                                                                                                    
                                                                                                    
                           
<?xpacket end="w"?></metadata>
<defs>
    <style>
      .cls-link {
        fill: white;
        fill-rule: evenodd;
      }
    </style>
  </defs>
  <path id="link" class="cls-link" d="M534.607,5147.2h3.329v10.39h-3.329V5147.2Zm14.258,0.95a3.531,3.531,0,0,0-2.775-1.19,3.808,3.808,0,0,0-1.156.17,2.365,2.365,0,0,0-.877.45,4.561,4.561,0,0,0-.571.55,3.828,3.828,0,0,0-.393.55v-1.48h-3.32l0.01,0.51c0.007,0.33.01,1.37,0.01,3.1s-0.007,3.99-.02,6.78h3.32v-5.8a2.66,2.66,0,0,1,.111-0.85,2.238,2.238,0,0,1,.641-0.89,1.6,1.6,0,0,1,1.064-.36,1.407,1.407,0,0,1,1.277.62,3.131,3.131,0,0,1,.408,1.72v5.56h3.32v-5.95A5.126,5.126,0,0,0,548.865,5148.15Zm-12.573-5.94a1.85,1.85,0,0,0-1.358.5,1.732,1.732,0,0,0-.519,1.29,1.768,1.768,0,0,0,.5,1.28,1.792,1.792,0,0,0,1.332.51h0.02a1.869,1.869,0,0,0,1.368-.51,1.706,1.706,0,0,0,.509-1.28A1.739,1.739,0,0,0,536.292,5142.21Z" transform="translate(-534.406 -5142.22)"/>
</svg>
