<svg xmlns="http://www.w3.org/2000/svg" width="17" height="17" viewBox="0 0 17 17">
  <metadata><?xpacket begin="﻿" id="W5M0MpCehiHzreSzNTczkc9d"?>
<x:xmpmeta xmlns:x="adobe:ns:meta/" x:xmptk="Adobe XMP Core 5.6-c142 79.160924, 2017/07/13-01:06:39        ">
   <rdf:RDF xmlns:rdf="http://www.w3.org/1999/02/22-rdf-syntax-ns#">
      <rdf:Description rdf:about=""/>
   </rdf:RDF>
</x:xmpmeta>
                                                                                                    
                                                                                                    
                                                                                                    
                                                                                                    
                                                                                                    
                                                                                                    
                                                                                                    
                                                                                                    
                                                                                                    
                                                                                                    
                                                                                                    
                                                                                                    
                                                                                                    
                                                                                                    
                                                                                                    
                                                                                                    
                                                                                                    
                                                                                                    
                                                                                                    
                                                                                                    
                           
<?xpacket end="w"?></metadata>
<defs>
    <style>
      .cls-phone{
        fill: #f1c40f !important;
      }
    </style>
  </defs>
  <path id="phone" class="cls-phone" d="M1237.46,88.861c-1.55.074-2.14,1.177-2.51,2.429a11.359,11.359,0,0,1-7.39-7.36c1.26-.368,2.37-0.956,2.37-2.5a2.092,2.092,0,0,0-2.22-2.207c-2.66,0-2.96,3.238-2.29,5.151,1.26,3.827,5.62,8.169,9.53,9.2,1.92,0.516,4.66,0,4.73-2.428A2.192,2.192,0,0,0,1237.46,88.861Zm-0.07-1.178a3.434,3.434,0,0,1,3.55,3.459c-0.08,3.238-3.55,4.342-6.36,3.606-4.28-1.1-8.86-5.814-10.27-9.935-0.96-2.869-.15-6.77,3.33-6.844a3.43,3.43,0,0,1,3.54,3.459,3.827,3.827,0,0,1-2.07,3.238,10.886,10.886,0,0,0,5.03,5.079A3.751,3.751,0,0,1,1237.39,87.684Z" transform="translate(-1223.94 -77.969)"/>
</svg>
