<svg xmlns="http://www.w3.org/2000/svg" width="18" height="11" viewBox="0 0 18 11">
  <metadata><?xpacket begin="﻿" id="W5M0MpCehiHzreSzNTczkc9d"?>
<x:xmpmeta xmlns:x="adobe:ns:meta/" x:xmptk="Adobe XMP Core 5.6-c142 79.160924, 2017/07/13-01:06:39        ">
   <rdf:RDF xmlns:rdf="http://www.w3.org/1999/02/22-rdf-syntax-ns#">
      <rdf:Description rdf:about=""/>
   </rdf:RDF>
</x:xmpmeta>
                                                                                                    
                                                                                                    
                                                                                                    
                                                                                                    
                                                                                                    
                                                                                                    
                                                                                                    
                                                                                                    
                                                                                                    
                                                                                                    
                                                                                                    
                                                                                                    
                                                                                                    
                                                                                                    
                                                                                                    
                                                                                                    
                                                                                                    
                                                                                                    
                                                                                                    
                                                                                                    
                           
<?xpacket end="w"?></metadata>
<defs>
    <style>
      .cls-1 {
        fill: #f1c40f;
        fill-rule: evenodd;
      }
    </style>
  </defs>
  <path id="q2" class="cls-1" d="M866.872,1300.08h0c-0.023.28-.023,0.52-0.068,0.77a6.129,6.129,0,0,1-1.085,2.73,5.709,5.709,0,0,1-.971,1.06,5.984,5.984,0,0,1-1.175.79c-0.113.07-.248,0.11-0.361,0.17-0.068.02-.113,0.07-0.181,0.09-0.249.08-.5,0.17-0.746,0.23a1.54,1.54,0,0,0-.2.05,0.189,0.189,0,0,1-.135-0.35,1,1,0,0,1,.158-0.08,5.979,5.979,0,0,0,.5-0.36,1.991,1.991,0,0,1,.226-0.2,1.412,1.412,0,0,0,.2-0.21,4.642,4.642,0,0,0,.655-0.91,4.24,4.24,0,0,0,.384-1.01c0.023-.06.023-0.12,0.045-0.17a0.188,0.188,0,0,0-.2-0.21H861.02a2.083,2.083,0,0,1-2.146-2.02v-3.46a2.089,2.089,0,0,1,2.146-2.02H864.7a2.083,2.083,0,0,1,2.146,2.02v2.22a1.691,1.691,0,0,0,.023.34v0.53Zm10,0h0c-0.023.28-.023,0.52-0.068,0.77a6.129,6.129,0,0,1-1.085,2.73,5.743,5.743,0,0,1-.971,1.06,5.954,5.954,0,0,1-1.175.79c-0.113.07-.248,0.11-0.361,0.17-0.068.02-.113,0.07-0.181,0.09-0.249.08-.5,0.17-0.746,0.23a1.54,1.54,0,0,0-.2.05,0.189,0.189,0,0,1-.135-0.35,1,1,0,0,1,.158-0.08,5.979,5.979,0,0,0,.5-0.36,1.991,1.991,0,0,1,.226-0.2,1.412,1.412,0,0,0,.2-0.21,4.642,4.642,0,0,0,.655-0.91,4.24,4.24,0,0,0,.384-1.01c0.023-.06.023-0.12,0.045-0.17a0.188,0.188,0,0,0-.2-0.21H871.02a2.083,2.083,0,0,1-2.146-2.02v-3.46a2.089,2.089,0,0,1,2.146-2.02H874.7a2.083,2.083,0,0,1,2.146,2.02v2.22a1.691,1.691,0,0,0,.023.34v0.53Z" transform="translate(-858.875 -1294.97)"/>
</svg>
