<svg xmlns="http://www.w3.org/2000/svg" width="32" height="19" viewBox="0 0 32 19">
  <metadata><?xpacket begin="﻿" id="W5M0MpCehiHzreSzNTczkc9d"?>
<x:xmpmeta xmlns:x="adobe:ns:meta/" x:xmptk="Adobe XMP Core 5.6-c142 79.160924, 2017/07/13-01:06:39        ">
   <rdf:RDF xmlns:rdf="http://www.w3.org/1999/02/22-rdf-syntax-ns#">
      <rdf:Description rdf:about=""/>
   </rdf:RDF>
</x:xmpmeta>
                                                                                                    
                                                                                                    
                                                                                                    
                                                                                                    
                                                                                                    
                                                                                                    
                                                                                                    
                                                                                                    
                                                                                                    
                                                                                                    
                                                                                                    
                                                                                                    
                                                                                                    
                                                                                                    
                                                                                                    
                                                                                                    
                                                                                                    
                                                                                                    
                                                                                                    
                                                                                                    
                           
<?xpacket end="w"?></metadata>
<defs>
    <style>
      .cls-1 {
        fill: #f1c40f;
        fill-rule: evenodd;
      }
    </style>
  </defs>
  <path id="Quote" class="cls-1" d="M238.789,3483.99a4.974,4.974,0,0,0-4.84,5.07V3493a4.982,4.982,0,0,0,4.84,5.1h1.726v4.11a0.8,0.8,0,0,0,.793.78,4.353,4.353,0,0,0,2.632-1.12,11.575,11.575,0,0,0,2.292-2.51,11.991,11.991,0,0,0,2.406-6.36v-3.94a4.979,4.979,0,0,0-4.867-5.07h-4.982Zm17.262,0a4.974,4.974,0,0,0-4.839,5.07V3493a4.981,4.981,0,0,0,4.839,5.1h1.726v4.11a0.823,0.823,0,0,0,.792.78,4.425,4.425,0,0,0,2.66-1.12,11.4,11.4,0,0,0,2.263-2.51,11.8,11.8,0,0,0,2.435-6.36v-3.94a5,5,0,0,0-4.868-5.07h-5.008Zm-17.262,1.61h4.98a3.339,3.339,0,0,1,3.283,3.46V3493a10.984,10.984,0,0,1-2.151,5.46,10.087,10.087,0,0,1-1.952,2.17,2.227,2.227,0,0,1-.85.39v-3.71a0.8,0.8,0,0,0-.791-0.79h-2.519a3.388,3.388,0,0,1-3.255-3.52v-3.94a3.334,3.334,0,0,1,3.255-3.46h0Zm17.262,0h5.008a3.334,3.334,0,0,1,3.255,3.46V3493a10.984,10.984,0,0,1-2.151,5.46,9.362,9.362,0,0,1-1.923,2.17,2.236,2.236,0,0,1-.849.39v-3.71a0.831,0.831,0,0,0-.822-0.79h-2.518a3.366,3.366,0,0,1-3.227-3.52v-3.94a3.312,3.312,0,0,1,3.227-3.46h0Z" transform="translate(-233.938 -3484)"/>
</svg>
