<svg xmlns="http://www.w3.org/2000/svg" width="17.969" height="15.97" viewBox="0 0 17.969 15.97">
  <metadata><?xpacket begin="﻿" id="W5M0MpCehiHzreSzNTczkc9d"?>
<x:xmpmeta xmlns:x="adobe:ns:meta/" x:xmptk="Adobe XMP Core 5.6-c142 79.160924, 2017/07/13-01:06:39        ">
   <rdf:RDF xmlns:rdf="http://www.w3.org/1999/02/22-rdf-syntax-ns#">
      <rdf:Description rdf:about=""/>
   </rdf:RDF>
</x:xmpmeta>
                                                                                                    
                                                                                                    
                                                                                                    
                                                                                                    
                                                                                                    
                                                                                                    
                                                                                                    
                                                                                                    
                                                                                                    
                                                                                                    
                                                                                                    
                                                                                                    
                                                                                                    
                                                                                                    
                                                                                                    
                                                                                                    
                                                                                                    
                                                                                                    
                                                                                                    
                                                                                                    
                           
<?xpacket end="w"?></metadata>
<defs>
    <style>
      .cls-tel {
        fill: white;
        fill-rule: evenodd;
      }
    </style>
  </defs>
  <path id="Telegram" class="cls-tel" d="M677.335,5150.68l4.149,1.58,1.605,5.26a0.486,0.486,0,0,0,.776.24l2.313-1.92a0.692,0.692,0,0,1,.841-0.03l4.171,3.09a0.489,0.489,0,0,0,.766-0.3l3.055-14.98a0.494,0.494,0,0,0-.655-0.57l-17.026,6.7A0.5,0.5,0,0,0,677.335,5150.68Zm5.5,0.74,8.108-5.1a0.144,0.144,0,0,1,.17.23l-6.691,6.34a1.461,1.461,0,0,0-.43.85l-0.228,1.72a0.209,0.209,0,0,1-.409.03l-0.877-3.14A0.827,0.827,0,0,1,682.831,5151.42Z" transform="translate(-677.031 -5143.03)"/>
</svg>
