<svg xmlns="http://www.w3.org/2000/svg" width="18" height="14" viewBox="0 0 18 14">
  <metadata><?xpacket begin="﻿" id="W5M0MpCehiHzreSzNTczkc9d"?>
<x:xmpmeta xmlns:x="adobe:ns:meta/" x:xmptk="Adobe XMP Core 5.6-c142 79.160924, 2017/07/13-01:06:39        ">
   <rdf:RDF xmlns:rdf="http://www.w3.org/1999/02/22-rdf-syntax-ns#">
      <rdf:Description rdf:about=""/>
   </rdf:RDF>
</x:xmpmeta>
                                                                                                    
                                                                                                    
                                                                                                    
                                                                                                    
                                                                                                    
                                                                                                    
                                                                                                    
                                                                                                    
                                                                                                    
                                                                                                    
                                                                                                    
                                                                                                    
                                                                                                    
                                                                                                    
                                                                                                    
                                                                                                    
                                                                                                    
                                                                                                    
                                                                                                    
                                                                                                    
                           
<?xpacket end="w"?></metadata>
<defs>
    <style>
      .cls-twitt {
        fill: white;
        fill-rule: evenodd;
      }
    </style>
  </defs>
  <path id="Twitter_" data-name="Twitter " class="cls-twitt" d="M597.629,5145.99a7.847,7.847,0,0,1-2.121.56,3.583,3.583,0,0,0,1.624-1.96,7.517,7.517,0,0,1-2.346.86,3.756,3.756,0,0,0-2.7-1.12,3.623,3.623,0,0,0-3.693,3.54,3.284,3.284,0,0,0,.1.8,10.611,10.611,0,0,1-7.613-3.69,3.4,3.4,0,0,0-.5,1.78,3.5,3.5,0,0,0,1.643,2.94,3.89,3.89,0,0,1-1.673-.44c0,0.01,0,.03,0,0.04a3.591,3.591,0,0,0,2.963,3.47,3.889,3.889,0,0,1-.973.12,3.975,3.975,0,0,1-.7-0.06,3.684,3.684,0,0,0,3.45,2.45,7.608,7.608,0,0,1-4.587,1.51,8.54,8.54,0,0,1-.881-0.04,10.82,10.82,0,0,0,5.662,1.58,10.2,10.2,0,0,0,10.509-10.05c0-.15,0-0.31-0.011-0.46A7.335,7.335,0,0,0,597.629,5145.99Z" transform="translate(-579.625 -5144.34)"/>
</svg>
