<svg xmlns="http://www.w3.org/2000/svg" width="16.125" height="16" viewBox="0 0 16.125 16">
  <metadata><?xpacket begin="﻿" id="W5M0MpCehiHzreSzNTczkc9d"?>
<x:xmpmeta xmlns:x="adobe:ns:meta/" x:xmptk="Adobe XMP Core 5.6-c142 79.160924, 2017/07/13-01:06:39        ">
   <rdf:RDF xmlns:rdf="http://www.w3.org/1999/02/22-rdf-syntax-ns#">
      <rdf:Description rdf:about=""/>
   </rdf:RDF>
</x:xmpmeta>
                                                                                                    
                                                                                                    
                                                                                                    
                                                                                                    
                                                                                                    
                                                                                                    
                                                                                                    
                                                                                                    
                                                                                                    
                                                                                                    
                                                                                                    
                                                                                                    
                                                                                                    
                                                                                                    
                                                                                                    
                                                                                                    
                                                                                                    
                                                                                                    
                                                                                                    
                                                                                                    
                           
<?xpacket end="w"?></metadata>
<defs>
    <style>
      .cls-whats {
        fill: white;
        fill-rule: evenodd;
      }
    </style>
  </defs>
  <path id="whats" class="cls-whats" d="M637.565,5143h0a8.036,8.036,0,0,0-8.054,8,7.912,7.912,0,0,0,1.534,4.69l-1,2.97,3.1-.98A8.02,8.02,0,1,0,637.565,5143Zm4.688,11.3a2.311,2.311,0,0,1-1.581,1.13c-0.421.08-.971,0.16-2.822-0.61a10.084,10.084,0,0,1-4.011-3.51,4.6,4.6,0,0,1-.956-2.42,2.526,2.526,0,0,1,.823-1.94,1.166,1.166,0,0,1,.824-0.29,2.271,2.271,0,0,1,.27.01,0.465,0.465,0,0,1,.512.39c0.194,0.47.667,1.62,0.724,1.73a0.49,0.49,0,0,1,.034.44,1.267,1.267,0,0,1-.261.36c-0.119.14-.232,0.24-0.35,0.39a0.376,0.376,0,0,0-.095.5,7.2,7.2,0,0,0,1.307,1.61,5.9,5.9,0,0,0,1.889,1.16,0.512,0.512,0,0,0,.568-0.09,8.722,8.722,0,0,0,.63-0.83,0.445,0.445,0,0,1,.578-0.17c0.217,0.07,1.368.64,1.605,0.75a1.159,1.159,0,0,1,.45.28A1.988,1.988,0,0,1,642.253,5154.3Z" transform="translate(-629.5 -5143)"/>
</svg>
